<svg width="500" height="400" xmlns="http://www.w3.org/2000/svg">
  <rect width="500" height="400" fill="white"/>

  <!-- Grid lines -->
  <line x1="60" y1="340" x2="460" y2="340" stroke="#aaaaaa" stroke-width="1.5" stroke-dasharray="3,3"/>
  <line x1="60" y1="190.0" x2="460" y2="190.0" stroke="#cccccc" stroke-width="0.8" stroke-dasharray="3,3"/>
  <line x1="60" y1="127.86796564403576" x2="460" y2="127.86796564403576" stroke="#cccccc" stroke-width="0.8" stroke-dasharray="3,3"/>
  <line x1="60" y1="80.1923788646684" x2="460" y2="80.1923788646684" stroke="#cccccc" stroke-width="0.8" stroke-dasharray="3,3"/>
  <line x1="60" y1="40" x2="460" y2="40" stroke="#cccccc" stroke-width="0.8" stroke-dasharray="3,3"/>
  <line x1="60.0" y1="340" x2="60.0" y2="40" stroke="#aaaaaa" stroke-width="1.2" stroke-dasharray="3,3"/>
  <line x1="193.33333333333331" y1="340" x2="193.33333333333331" y2="40" stroke="#cccccc" stroke-width="0.8" stroke-dasharray="3,3"/>
  <line x1="260.0" y1="340" x2="260.0" y2="40" stroke="#cccccc" stroke-width="0.8" stroke-dasharray="3,3"/>
  <line x1="326.66666666666663" y1="340" x2="326.66666666666663" y2="40" stroke="#cccccc" stroke-width="0.8" stroke-dasharray="3,3"/>
  <line x1="460.0" y1="340" x2="460.0" y2="40" stroke="#aaaaaa" stroke-width="1.2" stroke-dasharray="3,3"/>

  <!-- Axes -->
  <line x1="60" y1="340" x2="460" y2="340" stroke="black" stroke-width="2"/>
  <line x1="60" y1="340" x2="60" y2="40" stroke="black" stroke-width="2"/>

  <!-- Arrow heads -->
  <polygon points="460,340 455,335 455,345" fill="black"/>
  <polygon points="60,40 55,45 65,45" fill="black"/>

  <!-- Axis labels -->
  <text x="470" y="345" font-family="Arial" font-size="16" font-weight="bold">θ</text>
  <text x="20" y="35" font-family="Arial" font-size="16" font-weight="bold">sin θ</text>

  <!-- X-axis ticks and labels -->
  <line x1="60.0" y1="335" x2="60.0" y2="345" stroke="black" stroke-width="1.5"/>
  <text x="40.0" y="360" font-family="Arial" font-size="14">0°</text>
  <line x1="193.33333333333331" y1="335" x2="193.33333333333331" y2="345" stroke="black" stroke-width="1.5"/>
  <text x="183.33333333333331" y="360" font-family="Arial" font-size="14">30°</text>
  <line x1="260.0" y1="335" x2="260.0" y2="345" stroke="black" stroke-width="1.5"/>
  <text x="250.0" y="360" font-family="Arial" font-size="14">45°</text>
  <line x1="326.66666666666663" y1="335" x2="326.66666666666663" y2="345" stroke="black" stroke-width="1.5"/>
  <text x="316.66666666666663" y="360" font-family="Arial" font-size="14">60°</text>
  <line x1="460.0" y1="335" x2="460.0" y2="345" stroke="black" stroke-width="1.5"/>
  <text x="450.0" y="360" font-family="Arial" font-size="14">90°</text>

  <!-- Y-axis ticks and labels -->
  <line x1="55" y1="340" x2="65" y2="340" stroke="black" stroke-width="1.5"/>
  <text x="30" y="344" font-family="Arial" font-size="12">0</text>
  <line x1="55" y1="190.0" x2="65" y2="190.0" stroke="black" stroke-width="1.5"/>
  <text x="30" y="194.0" font-family="Arial" font-size="12">1/2</text>
  <line x1="55" y1="127.86796564403576" x2="65" y2="127.86796564403576" stroke="black" stroke-width="1.5"/>
  <text x="15" y="131.86796564403576" font-family="Arial" font-size="12">1/√2</text>
  <line x1="55" y1="80.1923788646684" x2="65" y2="80.1923788646684" stroke="black" stroke-width="1.5"/>
  <text x="15" y="84.1923788646684" font-family="Arial" font-size="12">√3/2</text>
  <line x1="55" y1="40" x2="65" y2="40" stroke="black" stroke-width="1.5"/>
  <text x="30" y="44" font-family="Arial" font-size="12">1</text>

  <!-- Sine curve -->
  <path d="M 60.00 340.00 L 62.00 337.64 L 64.00 335.29 L 66.00 332.93 L 68.00 330.58 L 70.00 328.22 L 72.00 325.87 L 74.00 323.51 L 76.00 321.16 L 78.00 318.81 L 80.00 316.46 L 82.00 314.11 L 84.00 311.77 L 86.00 309.42 L 88.00 307.08 L 90.00 304.74 L 92.00 302.40 L 94.00 300.06 L 96.00 297.73 L 98.00 295.40 L 100.00 293.07 L 102.00 290.74 L 104.00 288.42 L 106.00 286.10 L 108.00 283.79 L 110.00 281.47 L 112.00 279.16 L 114.00 276.86 L 116.00 274.56 L 118.00 272.26 L 120.00 269.97 L 122.00 267.68 L 124.00 265.39 L 126.00 263.11 L 128.00 260.84 L 130.00 258.57 L 132.00 256.30 L 134.00 254.04 L 136.00 251.79 L 138.00 249.54 L 140.00 247.29 L 142.00 245.06 L 144.00 242.82 L 146.00 240.60 L 148.00 238.38 L 150.00 236.16 L 152.00 233.96 L 154.00 231.76 L 156.00 229.56 L 158.00 227.38 L 160.00 225.19 L 162.00 223.02 L 164.00 220.86 L 166.00 218.70 L 168.00 216.55 L 170.00 214.40 L 172.00 212.27 L 174.00 210.14 L 176.00 208.02 L 178.00 205.91 L 180.00 203.80 L 182.00 201.71 L 184.00 199.62 L 186.00 197.54 L 188.00 195.47 L 190.00 193.41 L 192.00 191.36 L 194.00 189.32 L 196.00 187.29 L 198.00 185.26 L 200.00 183.25 L 202.00 181.25 L 204.00 179.25 L 206.00 177.27 L 208.00 175.29 L 210.00 173.33 L 212.00 171.37 L 214.00 169.43 L 216.00 167.50 L 218.00 165.58 L 220.00 163.66 L 222.00 161.76 L 224.00 159.87 L 226.00 158.00 L 228.00 156.13 L 230.00 154.27 L 232.00 152.43 L 234.00 150.59 L 236.00 148.77 L 238.00 146.96 L 240.00 145.17 L 242.00 143.38 L 244.00 141.61 L 246.00 139.85 L 248.00 138.10 L 250.00 136.36 L 252.00 134.64 L 254.00 132.92 L 256.00 131.23 L 258.00 129.54 L 260.00 127.87 L 262.00 126.21 L 264.00 124.56 L 266.00 122.93 L 268.00 121.31 L 270.00 119.70 L 272.00 118.11 L 274.00 116.53 L 276.00 114.97 L 278.00 113.42 L 280.00 111.88 L 282.00 110.36 L 284.00 108.85 L 286.00 107.35 L 288.00 105.87 L 290.00 104.40 L 292.00 102.95 L 294.00 101.52 L 296.00 100.09 L 298.00 98.69 L 300.00 97.29 L 302.00 95.92 L 304.00 94.56 L 306.00 93.21 L 308.00 91.88 L 310.00 90.56 L 312.00 89.26 L 314.00 87.97 L 316.00 86.70 L 318.00 85.45 L 320.00 84.21 L 322.00 82.98 L 324.00 81.78 L 326.00 80.59 L 328.00 79.41 L 330.00 78.25 L 332.00 77.11 L 334.00 75.98 L 336.00 74.87 L 338.00 73.78 L 340.00 72.70 L 342.00 71.64 L 344.00 70.59 L 346.00 69.56 L 348.00 68.55 L 350.00 67.56 L 352.00 66.58 L 354.00 65.62 L 356.00 64.67 L 358.00 63.75 L 360.00 62.84 L 362.00 61.94 L 364.00 61.07 L 366.00 60.21 L 368.00 59.37 L 370.00 58.54 L 372.00 57.74 L 374.00 56.95 L 376.00 56.17 L 378.00 55.42 L 380.00 54.68 L 382.00 53.96 L 384.00 53.26 L 386.00 52.58 L 388.00 51.91 L 390.00 51.26 L 392.00 50.63 L 394.00 50.02 L 396.00 49.43 L 398.00 48.85 L 400.00 48.29 L 402.00 47.75 L 404.00 47.22 L 406.00 46.72 L 408.00 46.23 L 410.00 45.76 L 412.00 45.31 L 414.00 44.88 L 416.00 44.47 L 418.00 44.07 L 420.00 43.69 L 422.00 43.33 L 424.00 42.99 L 426.00 42.67 L 428.00 42.37 L 430.00 42.08 L 432.00 41.81 L 434.00 41.56 L 436.00 41.33 L 438.00 41.12 L 440.00 40.92 L 442.00 40.75 L 444.00 40.59 L 446.00 40.45 L 448.00 40.33 L 450.00 40.23 L 452.00 40.15 L 454.00 40.08 L 456.00 40.04 L 458.00 40.01 L 460.00 40.00" fill="none" stroke="blue" stroke-width="3"/>

  <!-- Special points -->
  <circle cx="60.0" cy="340.0" r="3" fill="red"/>
  <circle cx="193.33333333333331" cy="190.00000000000003" r="3" fill="red"/>
  <circle cx="260.0" cy="127.86796564403576" r="3" fill="red"/>
  <circle cx="326.66666666666663" cy="80.1923788646684" r="3" fill="red"/>
  <circle cx="460.0" cy="40.0" r="3" fill="red"/>
  <text x="68" y="332" font-family="Arial" font-size="11" fill="red">(0°, 0)</text>
  <text x="410" y="32" font-family="Arial" font-size="11" fill="red">(90°, 1)</text>

  <!-- Annotation -->
  <text x="180.0" y="60" font-family="Arial" font-size="14" fill="green" font-style="italic">sin θ increases from 0 to 1</text>
  <text x="200.0" y="78" font-family="Arial" font-size="14" fill="green" font-style="italic">as θ goes from 0° to 90°</text>
</svg>
