<svg width="800" height="520" xmlns="http://www.w3.org/2000/svg">
  <rect width="800" height="520" fill="white"/>

  <!-- Grid lines -->
  <line x1="60" y1="80.0" x2="760" y2="80.0" stroke="#cccccc" stroke-width="0.8" stroke-dasharray="3,3"/>
  <line x1="60" y1="104.11542731880104" x2="760" y2="104.11542731880104" stroke="#cccccc" stroke-width="0.8" stroke-dasharray="3,3"/>
  <line x1="60" y1="132.72077938642144" x2="760" y2="132.72077938642144" stroke="#cccccc" stroke-width="0.8" stroke-dasharray="3,3"/>
  <line x1="60" y1="170.0" x2="760" y2="170.0" stroke="#cccccc" stroke-width="0.8" stroke-dasharray="3,3"/>
  <line x1="60" y1="260.0" x2="760" y2="260.0" stroke="#aaaaaa" stroke-width="1.5" stroke-dasharray="3,3"/>
  <line x1="60" y1="350.0" x2="760" y2="350.0" stroke="#cccccc" stroke-width="0.8" stroke-dasharray="3,3"/>
  <line x1="60" y1="387.27922061357856" x2="760" y2="387.27922061357856" stroke="#cccccc" stroke-width="0.8" stroke-dasharray="3,3"/>
  <line x1="60" y1="415.88457268119896" x2="760" y2="415.88457268119896" stroke="#cccccc" stroke-width="0.8" stroke-dasharray="3,3"/>
  <line x1="60" y1="440.0" x2="760" y2="440.0" stroke="#cccccc" stroke-width="0.8" stroke-dasharray="3,3"/>
  <line x1="60.0" y1="80" x2="60.0" y2="440" stroke="#aaaaaa" stroke-width="1.2" stroke-dasharray="3,3"/>
  <line x1="118.33333333333333" y1="80" x2="118.33333333333333" y2="440" stroke="#cccccc" stroke-width="0.8" stroke-dasharray="3,3"/>
  <line x1="147.5" y1="80" x2="147.5" y2="440" stroke="#cccccc" stroke-width="0.8" stroke-dasharray="3,3"/>
  <line x1="176.66666666666666" y1="80" x2="176.66666666666666" y2="440" stroke="#cccccc" stroke-width="0.8" stroke-dasharray="3,3"/>
  <line x1="235.0" y1="80" x2="235.0" y2="440" stroke="#aaaaaa" stroke-width="1.2" stroke-dasharray="3,3"/>
  <line x1="293.3333333333333" y1="80" x2="293.3333333333333" y2="440" stroke="#cccccc" stroke-width="0.8" stroke-dasharray="3,3"/>
  <line x1="322.5" y1="80" x2="322.5" y2="440" stroke="#cccccc" stroke-width="0.8" stroke-dasharray="3,3"/>
  <line x1="351.6666666666667" y1="80" x2="351.6666666666667" y2="440" stroke="#cccccc" stroke-width="0.8" stroke-dasharray="3,3"/>
  <line x1="410.0" y1="80" x2="410.0" y2="440" stroke="#aaaaaa" stroke-width="1.2" stroke-dasharray="3,3"/>
  <line x1="468.33333333333337" y1="80" x2="468.33333333333337" y2="440" stroke="#cccccc" stroke-width="0.8" stroke-dasharray="3,3"/>
  <line x1="497.5" y1="80" x2="497.5" y2="440" stroke="#cccccc" stroke-width="0.8" stroke-dasharray="3,3"/>
  <line x1="526.6666666666666" y1="80" x2="526.6666666666666" y2="440" stroke="#cccccc" stroke-width="0.8" stroke-dasharray="3,3"/>
  <line x1="585.0" y1="80" x2="585.0" y2="440" stroke="#aaaaaa" stroke-width="1.2" stroke-dasharray="3,3"/>
  <line x1="643.3333333333334" y1="80" x2="643.3333333333334" y2="440" stroke="#cccccc" stroke-width="0.8" stroke-dasharray="3,3"/>
  <line x1="672.5" y1="80" x2="672.5" y2="440" stroke="#cccccc" stroke-width="0.8" stroke-dasharray="3,3"/>
  <line x1="701.6666666666666" y1="80" x2="701.6666666666666" y2="440" stroke="#cccccc" stroke-width="0.8" stroke-dasharray="3,3"/>
  <line x1="760.0" y1="80" x2="760.0" y2="440" stroke="#aaaaaa" stroke-width="1.2" stroke-dasharray="3,3"/>

  <!-- Axes -->
  <line x1="60" y1="260.0" x2="760" y2="260.0" stroke="black" stroke-width="2"/>
  <line x1="60" y1="80" x2="60" y2="440" stroke="black" stroke-width="2"/>

  <!-- Arrow heads -->
  <polygon points="760,260.0 755,255.0 755,265.0" fill="black"/>
  <polygon points="60,80 55,85 65,85" fill="black"/>

  <!-- Axis labels -->
  <text x="770" y="265.0" font-family="Arial" font-size="16" font-weight="bold">θ</text>
  <text x="45" y="70" font-family="Arial" font-size="14" font-weight="bold">y</text>

  <!-- X-axis ticks and labels -->
  <line x1="60.0" y1="255.0" x2="60.0" y2="265.0" stroke="black" stroke-width="2"/>
  <text x="45.0" y="280.0" font-family="Arial" font-size="13" font-weight="bold">0°</text>
  <line x1="235.0" y1="255.0" x2="235.0" y2="265.0" stroke="black" stroke-width="2"/>
  <text x="220.0" y="280.0" font-family="Arial" font-size="13" font-weight="bold">90°</text>
  <line x1="410.0" y1="255.0" x2="410.0" y2="265.0" stroke="black" stroke-width="2"/>
  <text x="395.0" y="280.0" font-family="Arial" font-size="13" font-weight="bold">180°</text>
  <line x1="585.0" y1="255.0" x2="585.0" y2="265.0" stroke="black" stroke-width="2"/>
  <text x="570.0" y="280.0" font-family="Arial" font-size="13" font-weight="bold">270°</text>
  <line x1="760.0" y1="255.0" x2="760.0" y2="265.0" stroke="black" stroke-width="2"/>
  <text x="745.0" y="280.0" font-family="Arial" font-size="13" font-weight="bold">360°</text>
  <line x1="118.33333333333333" y1="257.0" x2="118.33333333333333" y2="263.0" stroke="black" stroke-width="1"/>
  <text x="106.33333333333333" y="298.0" font-family="Arial" font-size="10">30°</text>
  <line x1="147.5" y1="257.0" x2="147.5" y2="263.0" stroke="black" stroke-width="1"/>
  <text x="135.5" y="298.0" font-family="Arial" font-size="10">45°</text>
  <line x1="176.66666666666666" y1="257.0" x2="176.66666666666666" y2="263.0" stroke="black" stroke-width="1"/>
  <text x="164.66666666666666" y="298.0" font-family="Arial" font-size="10">60°</text>
  <line x1="293.3333333333333" y1="257.0" x2="293.3333333333333" y2="263.0" stroke="black" stroke-width="1"/>
  <text x="281.3333333333333" y="298.0" font-family="Arial" font-size="10">120°</text>
  <line x1="322.5" y1="257.0" x2="322.5" y2="263.0" stroke="black" stroke-width="1"/>
  <text x="310.5" y="298.0" font-family="Arial" font-size="10">135°</text>
  <line x1="351.6666666666667" y1="257.0" x2="351.6666666666667" y2="263.0" stroke="black" stroke-width="1"/>
  <text x="339.6666666666667" y="298.0" font-family="Arial" font-size="10">150°</text>
  <line x1="468.33333333333337" y1="257.0" x2="468.33333333333337" y2="263.0" stroke="black" stroke-width="1"/>
  <text x="456.33333333333337" y="298.0" font-family="Arial" font-size="10">210°</text>
  <line x1="497.5" y1="257.0" x2="497.5" y2="263.0" stroke="black" stroke-width="1"/>
  <text x="485.5" y="298.0" font-family="Arial" font-size="10">225°</text>
  <line x1="526.6666666666666" y1="257.0" x2="526.6666666666666" y2="263.0" stroke="black" stroke-width="1"/>
  <text x="514.6666666666666" y="298.0" font-family="Arial" font-size="10">240°</text>
  <line x1="643.3333333333334" y1="257.0" x2="643.3333333333334" y2="263.0" stroke="black" stroke-width="1"/>
  <text x="631.3333333333334" y="298.0" font-family="Arial" font-size="10">300°</text>
  <line x1="672.5" y1="257.0" x2="672.5" y2="263.0" stroke="black" stroke-width="1"/>
  <text x="660.5" y="298.0" font-family="Arial" font-size="10">315°</text>
  <line x1="701.6666666666666" y1="257.0" x2="701.6666666666666" y2="263.0" stroke="black" stroke-width="1"/>
  <text x="689.6666666666666" y="298.0" font-family="Arial" font-size="10">330°</text>

  <!-- Y-axis ticks and labels -->
  <line x1="55" y1="80.0" x2="65" y2="80.0" stroke="black" stroke-width="1"/>
  <text x="25" y="84.0" font-family="Arial" font-size="11">1</text>
  <line x1="55" y1="104.11542731880104" x2="65" y2="104.11542731880104" stroke="black" stroke-width="1"/>
  <text x="10" y="108.11542731880104" font-family="Arial" font-size="11">√3/2</text>
  <line x1="55" y1="132.72077938642144" x2="65" y2="132.72077938642144" stroke="black" stroke-width="1"/>
  <text x="10" y="136.72077938642144" font-family="Arial" font-size="11">1/√2</text>
  <line x1="55" y1="170.0" x2="65" y2="170.0" stroke="black" stroke-width="1"/>
  <text x="25" y="174.0" font-family="Arial" font-size="11">1/2</text>
  <line x1="55" y1="260.0" x2="65" y2="260.0" stroke="black" stroke-width="1"/>
  <text x="25" y="264.0" font-family="Arial" font-size="11">0</text>
  <line x1="55" y1="350.0" x2="65" y2="350.0" stroke="black" stroke-width="1"/>
  <text x="25" y="354.0" font-family="Arial" font-size="11">-1/2</text>
  <line x1="55" y1="387.27922061357856" x2="65" y2="387.27922061357856" stroke="black" stroke-width="1"/>
  <text x="10" y="391.27922061357856" font-family="Arial" font-size="11">-1/√2</text>
  <line x1="55" y1="415.88457268119896" x2="65" y2="415.88457268119896" stroke="black" stroke-width="1"/>
  <text x="10" y="419.88457268119896" font-family="Arial" font-size="11">-√3/2</text>
  <line x1="55" y1="440.0" x2="65" y2="440.0" stroke="black" stroke-width="1"/>
  <text x="25" y="444.0" font-family="Arial" font-size="11">-1</text>

  <!-- Sine curve -->
  <path d="M 60.00 260.00 L 61.75 257.17 L 63.50 254.35 L 65.25 251.52 L 67.00 248.70 L 68.75 245.88 L 70.50 243.06 L 72.25 240.25 L 74.00 237.44 L 75.75 234.64 L 77.50 231.84 L 79.25 229.05 L 81.00 226.27 L 82.75 223.50 L 84.50 220.73 L 86.25 217.98 L 88.00 215.24 L 89.75 212.50 L 91.50 209.78 L 93.25 207.07 L 95.00 204.38 L 96.75 201.69 L 98.50 199.03 L 100.25 196.37 L 102.00 193.74 L 103.75 191.12 L 105.50 188.51 L 107.25 185.93 L 109.00 183.36 L 110.75 180.81 L 112.50 178.28 L 114.25 175.77 L 116.00 173.28 L 117.75 170.82 L 119.50 168.37 L 121.25 165.95 L 123.00 163.55 L 124.75 161.18 L 126.50 158.82 L 128.25 156.50 L 130.00 154.20 L 131.75 151.92 L 133.50 149.68 L 135.25 147.46 L 137.00 145.26 L 138.75 143.10 L 140.50 140.96 L 142.25 138.86 L 144.00 136.78 L 145.75 134.74 L 147.50 132.72 L 149.25 130.74 L 151.00 128.79 L 152.75 126.87 L 154.50 124.98 L 156.25 123.13 L 158.00 121.31 L 159.75 119.52 L 161.50 117.77 L 163.25 116.06 L 165.00 114.38 L 166.75 112.73 L 168.50 111.13 L 170.25 109.55 L 172.00 108.02 L 173.75 106.52 L 175.50 105.07 L 177.25 103.65 L 179.00 102.26 L 180.75 100.92 L 182.50 99.62 L 184.25 98.36 L 186.00 97.13 L 187.75 95.95 L 189.50 94.80 L 191.25 93.70 L 193.00 92.64 L 194.75 91.62 L 196.50 90.64 L 198.25 89.70 L 200.00 88.81 L 201.75 87.96 L 203.50 87.15 L 205.25 86.38 L 207.00 85.66 L 208.75 84.97 L 210.50 84.33 L 212.25 83.74 L 214.00 83.19 L 215.75 82.68 L 217.50 82.22 L 219.25 81.80 L 221.00 81.42 L 222.75 81.09 L 224.50 80.80 L 226.25 80.55 L 228.00 80.36 L 229.75 80.20 L 231.50 80.09 L 233.25 80.02 L 235.00 80.00 L 236.75 80.02 L 238.50 80.09 L 240.25 80.20 L 242.00 80.36 L 243.75 80.55 L 245.50 80.80 L 247.25 81.09 L 249.00 81.42 L 250.75 81.80 L 252.50 82.22 L 254.25 82.68 L 256.00 83.19 L 257.75 83.74 L 259.50 84.33 L 261.25 84.97 L 263.00 85.66 L 264.75 86.38 L 266.50 87.15 L 268.25 87.96 L 270.00 88.81 L 271.75 89.70 L 273.50 90.64 L 275.25 91.62 L 277.00 92.64 L 278.75 93.70 L 280.50 94.80 L 282.25 95.95 L 284.00 97.13 L 285.75 98.36 L 287.50 99.62 L 289.25 100.92 L 291.00 102.26 L 292.75 103.65 L 294.50 105.07 L 296.25 106.52 L 298.00 108.02 L 299.75 109.55 L 301.50 111.13 L 303.25 112.73 L 305.00 114.38 L 306.75 116.06 L 308.50 117.77 L 310.25 119.52 L 312.00 121.31 L 313.75 123.13 L 315.50 124.98 L 317.25 126.87 L 319.00 128.79 L 320.75 130.74 L 322.50 132.72 L 324.25 134.74 L 326.00 136.78 L 327.75 138.86 L 329.50 140.96 L 331.25 143.10 L 333.00 145.26 L 334.75 147.46 L 336.50 149.68 L 338.25 151.92 L 340.00 154.20 L 341.75 156.50 L 343.50 158.82 L 345.25 161.18 L 347.00 163.55 L 348.75 165.95 L 350.50 168.37 L 352.25 170.82 L 354.00 173.28 L 355.75 175.77 L 357.50 178.28 L 359.25 180.81 L 361.00 183.36 L 362.75 185.93 L 364.50 188.51 L 366.25 191.12 L 368.00 193.74 L 369.75 196.37 L 371.50 199.03 L 373.25 201.69 L 375.00 204.38 L 376.75 207.07 L 378.50 209.78 L 380.25 212.50 L 382.00 215.24 L 383.75 217.98 L 385.50 220.73 L 387.25 223.50 L 389.00 226.27 L 390.75 229.05 L 392.50 231.84 L 394.25 234.64 L 396.00 237.44 L 397.75 240.25 L 399.50 243.06 L 401.25 245.88 L 403.00 248.70 L 404.75 251.52 L 406.50 254.35 L 408.25 257.17 L 410.00 260.00 L 411.75 262.83 L 413.50 265.65 L 415.25 268.48 L 417.00 271.30 L 418.75 274.12 L 420.50 276.94 L 422.25 279.75 L 424.00 282.56 L 425.75 285.36 L 427.50 288.16 L 429.25 290.95 L 431.00 293.73 L 432.75 296.50 L 434.50 299.27 L 436.25 302.02 L 438.00 304.76 L 439.75 307.50 L 441.50 310.22 L 443.25 312.93 L 445.00 315.62 L 446.75 318.31 L 448.50 320.97 L 450.25 323.63 L 452.00 326.26 L 453.75 328.88 L 455.50 331.49 L 457.25 334.07 L 459.00 336.64 L 460.75 339.19 L 462.50 341.72 L 464.25 344.23 L 466.00 346.72 L 467.75 349.18 L 469.50 351.63 L 471.25 354.05 L 473.00 356.45 L 474.75 358.82 L 476.50 361.18 L 478.25 363.50 L 480.00 365.80 L 481.75 368.08 L 483.50 370.32 L 485.25 372.54 L 487.00 374.74 L 488.75 376.90 L 490.50 379.04 L 492.25 381.14 L 494.00 383.22 L 495.75 385.26 L 497.50 387.28 L 499.25 389.26 L 501.00 391.21 L 502.75 393.13 L 504.50 395.02 L 506.25 396.87 L 508.00 398.69 L 509.75 400.48 L 511.50 402.23 L 513.25 403.94 L 515.00 405.62 L 516.75 407.27 L 518.50 408.87 L 520.25 410.45 L 522.00 411.98 L 523.75 413.48 L 525.50 414.93 L 527.25 416.35 L 529.00 417.74 L 530.75 419.08 L 532.50 420.38 L 534.25 421.64 L 536.00 422.87 L 537.75 424.05 L 539.50 425.20 L 541.25 426.30 L 543.00 427.36 L 544.75 428.38 L 546.50 429.36 L 548.25 430.30 L 550.00 431.19 L 551.75 432.04 L 553.50 432.85 L 555.25 433.62 L 557.00 434.34 L 558.75 435.03 L 560.50 435.67 L 562.25 436.26 L 564.00 436.81 L 565.75 437.32 L 567.50 437.78 L 569.25 438.20 L 571.00 438.58 L 572.75 438.91 L 574.50 439.20 L 576.25 439.45 L 578.00 439.64 L 579.75 439.80 L 581.50 439.91 L 583.25 439.98 L 585.00 440.00 L 586.75 439.98 L 588.50 439.91 L 590.25 439.80 L 592.00 439.64 L 593.75 439.45 L 595.50 439.20 L 597.25 438.91 L 599.00 438.58 L 600.75 438.20 L 602.50 437.78 L 604.25 437.32 L 606.00 436.81 L 607.75 436.26 L 609.50 435.67 L 611.25 435.03 L 613.00 434.34 L 614.75 433.62 L 616.50 432.85 L 618.25 432.04 L 620.00 431.19 L 621.75 430.30 L 623.50 429.36 L 625.25 428.38 L 627.00 427.36 L 628.75 426.30 L 630.50 425.20 L 632.25 424.05 L 634.00 422.87 L 635.75 421.64 L 637.50 420.38 L 639.25 419.08 L 641.00 417.74 L 642.75 416.35 L 644.50 414.93 L 646.25 413.48 L 648.00 411.98 L 649.75 410.45 L 651.50 408.87 L 653.25 407.27 L 655.00 405.62 L 656.75 403.94 L 658.50 402.23 L 660.25 400.48 L 662.00 398.69 L 663.75 396.87 L 665.50 395.02 L 667.25 393.13 L 669.00 391.21 L 670.75 389.26 L 672.50 387.28 L 674.25 385.26 L 676.00 383.22 L 677.75 381.14 L 679.50 379.04 L 681.25 376.90 L 683.00 374.74 L 684.75 372.54 L 686.50 370.32 L 688.25 368.08 L 690.00 365.80 L 691.75 363.50 L 693.50 361.18 L 695.25 358.82 L 697.00 356.45 L 698.75 354.05 L 700.50 351.63 L 702.25 349.18 L 704.00 346.72 L 705.75 344.23 L 707.50 341.72 L 709.25 339.19 L 711.00 336.64 L 712.75 334.07 L 714.50 331.49 L 716.25 328.88 L 718.00 326.26 L 719.75 323.63 L 721.50 320.97 L 723.25 318.31 L 725.00 315.62 L 726.75 312.93 L 728.50 310.22 L 730.25 307.50 L 732.00 304.76 L 733.75 302.02 L 735.50 299.27 L 737.25 296.50 L 739.00 293.73 L 740.75 290.95 L 742.50 288.16 L 744.25 285.36 L 746.00 282.56 L 747.75 279.75 L 749.50 276.94 L 751.25 274.12 L 753.00 271.30 L 754.75 268.48 L 756.50 265.65 L 758.25 262.83 L 760.00 260.00" fill="none" stroke="blue" stroke-width="2.5"/>

  <!-- Cosine curve -->
  <path d="M 60.00 80.00 L 61.75 80.02 L 63.50 80.09 L 65.25 80.20 L 67.00 80.36 L 68.75 80.55 L 70.50 80.80 L 72.25 81.09 L 74.00 81.42 L 75.75 81.80 L 77.50 82.22 L 79.25 82.68 L 81.00 83.19 L 82.75 83.74 L 84.50 84.33 L 86.25 84.97 L 88.00 85.66 L 89.75 86.38 L 91.50 87.15 L 93.25 87.96 L 95.00 88.81 L 96.75 89.70 L 98.50 90.64 L 100.25 91.62 L 102.00 92.64 L 103.75 93.70 L 105.50 94.80 L 107.25 95.95 L 109.00 97.13 L 110.75 98.36 L 112.50 99.62 L 114.25 100.92 L 116.00 102.26 L 117.75 103.65 L 119.50 105.07 L 121.25 106.52 L 123.00 108.02 L 124.75 109.55 L 126.50 111.13 L 128.25 112.73 L 130.00 114.38 L 131.75 116.06 L 133.50 117.77 L 135.25 119.52 L 137.00 121.31 L 138.75 123.13 L 140.50 124.98 L 142.25 126.87 L 144.00 128.79 L 145.75 130.74 L 147.50 132.72 L 149.25 134.74 L 151.00 136.78 L 152.75 138.86 L 154.50 140.96 L 156.25 143.10 L 158.00 145.26 L 159.75 147.46 L 161.50 149.68 L 163.25 151.92 L 165.00 154.20 L 166.75 156.50 L 168.50 158.82 L 170.25 161.18 L 172.00 163.55 L 173.75 165.95 L 175.50 168.37 L 177.25 170.82 L 179.00 173.28 L 180.75 175.77 L 182.50 178.28 L 184.25 180.81 L 186.00 183.36 L 187.75 185.93 L 189.50 188.51 L 191.25 191.12 L 193.00 193.74 L 194.75 196.37 L 196.50 199.03 L 198.25 201.69 L 200.00 204.38 L 201.75 207.07 L 203.50 209.78 L 205.25 212.50 L 207.00 215.24 L 208.75 217.98 L 210.50 220.73 L 212.25 223.50 L 214.00 226.27 L 215.75 229.05 L 217.50 231.84 L 219.25 234.64 L 221.00 237.44 L 222.75 240.25 L 224.50 243.06 L 226.25 245.88 L 228.00 248.70 L 229.75 251.52 L 231.50 254.35 L 233.25 257.17 L 235.00 260.00 L 236.75 262.83 L 238.50 265.65 L 240.25 268.48 L 242.00 271.30 L 243.75 274.12 L 245.50 276.94 L 247.25 279.75 L 249.00 282.56 L 250.75 285.36 L 252.50 288.16 L 254.25 290.95 L 256.00 293.73 L 257.75 296.50 L 259.50 299.27 L 261.25 302.02 L 263.00 304.76 L 264.75 307.50 L 266.50 310.22 L 268.25 312.93 L 270.00 315.62 L 271.75 318.31 L 273.50 320.97 L 275.25 323.63 L 277.00 326.26 L 278.75 328.88 L 280.50 331.49 L 282.25 334.07 L 284.00 336.64 L 285.75 339.19 L 287.50 341.72 L 289.25 344.23 L 291.00 346.72 L 292.75 349.18 L 294.50 351.63 L 296.25 354.05 L 298.00 356.45 L 299.75 358.82 L 301.50 361.18 L 303.25 363.50 L 305.00 365.80 L 306.75 368.08 L 308.50 370.32 L 310.25 372.54 L 312.00 374.74 L 313.75 376.90 L 315.50 379.04 L 317.25 381.14 L 319.00 383.22 L 320.75 385.26 L 322.50 387.28 L 324.25 389.26 L 326.00 391.21 L 327.75 393.13 L 329.50 395.02 L 331.25 396.87 L 333.00 398.69 L 334.75 400.48 L 336.50 402.23 L 338.25 403.94 L 340.00 405.62 L 341.75 407.27 L 343.50 408.87 L 345.25 410.45 L 347.00 411.98 L 348.75 413.48 L 350.50 414.93 L 352.25 416.35 L 354.00 417.74 L 355.75 419.08 L 357.50 420.38 L 359.25 421.64 L 361.00 422.87 L 362.75 424.05 L 364.50 425.20 L 366.25 426.30 L 368.00 427.36 L 369.75 428.38 L 371.50 429.36 L 373.25 430.30 L 375.00 431.19 L 376.75 432.04 L 378.50 432.85 L 380.25 433.62 L 382.00 434.34 L 383.75 435.03 L 385.50 435.67 L 387.25 436.26 L 389.00 436.81 L 390.75 437.32 L 392.50 437.78 L 394.25 438.20 L 396.00 438.58 L 397.75 438.91 L 399.50 439.20 L 401.25 439.45 L 403.00 439.64 L 404.75 439.80 L 406.50 439.91 L 408.25 439.98 L 410.00 440.00 L 411.75 439.98 L 413.50 439.91 L 415.25 439.80 L 417.00 439.64 L 418.75 439.45 L 420.50 439.20 L 422.25 438.91 L 424.00 438.58 L 425.75 438.20 L 427.50 437.78 L 429.25 437.32 L 431.00 436.81 L 432.75 436.26 L 434.50 435.67 L 436.25 435.03 L 438.00 434.34 L 439.75 433.62 L 441.50 432.85 L 443.25 432.04 L 445.00 431.19 L 446.75 430.30 L 448.50 429.36 L 450.25 428.38 L 452.00 427.36 L 453.75 426.30 L 455.50 425.20 L 457.25 424.05 L 459.00 422.87 L 460.75 421.64 L 462.50 420.38 L 464.25 419.08 L 466.00 417.74 L 467.75 416.35 L 469.50 414.93 L 471.25 413.48 L 473.00 411.98 L 474.75 410.45 L 476.50 408.87 L 478.25 407.27 L 480.00 405.62 L 481.75 403.94 L 483.50 402.23 L 485.25 400.48 L 487.00 398.69 L 488.75 396.87 L 490.50 395.02 L 492.25 393.13 L 494.00 391.21 L 495.75 389.26 L 497.50 387.28 L 499.25 385.26 L 501.00 383.22 L 502.75 381.14 L 504.50 379.04 L 506.25 376.90 L 508.00 374.74 L 509.75 372.54 L 511.50 370.32 L 513.25 368.08 L 515.00 365.80 L 516.75 363.50 L 518.50 361.18 L 520.25 358.82 L 522.00 356.45 L 523.75 354.05 L 525.50 351.63 L 527.25 349.18 L 529.00 346.72 L 530.75 344.23 L 532.50 341.72 L 534.25 339.19 L 536.00 336.64 L 537.75 334.07 L 539.50 331.49 L 541.25 328.88 L 543.00 326.26 L 544.75 323.63 L 546.50 320.97 L 548.25 318.31 L 550.00 315.62 L 551.75 312.93 L 553.50 310.22 L 555.25 307.50 L 557.00 304.76 L 558.75 302.02 L 560.50 299.27 L 562.25 296.50 L 564.00 293.73 L 565.75 290.95 L 567.50 288.16 L 569.25 285.36 L 571.00 282.56 L 572.75 279.75 L 574.50 276.94 L 576.25 274.12 L 578.00 271.30 L 579.75 268.48 L 581.50 265.65 L 583.25 262.83 L 585.00 260.00 L 586.75 257.17 L 588.50 254.35 L 590.25 251.52 L 592.00 248.70 L 593.75 245.88 L 595.50 243.06 L 597.25 240.25 L 599.00 237.44 L 600.75 234.64 L 602.50 231.84 L 604.25 229.05 L 606.00 226.27 L 607.75 223.50 L 609.50 220.73 L 611.25 217.98 L 613.00 215.24 L 614.75 212.50 L 616.50 209.78 L 618.25 207.07 L 620.00 204.38 L 621.75 201.69 L 623.50 199.03 L 625.25 196.37 L 627.00 193.74 L 628.75 191.12 L 630.50 188.51 L 632.25 185.93 L 634.00 183.36 L 635.75 180.81 L 637.50 178.28 L 639.25 175.77 L 641.00 173.28 L 642.75 170.82 L 644.50 168.37 L 646.25 165.95 L 648.00 163.55 L 649.75 161.18 L 651.50 158.82 L 653.25 156.50 L 655.00 154.20 L 656.75 151.92 L 658.50 149.68 L 660.25 147.46 L 662.00 145.26 L 663.75 143.10 L 665.50 140.96 L 667.25 138.86 L 669.00 136.78 L 670.75 134.74 L 672.50 132.72 L 674.25 130.74 L 676.00 128.79 L 677.75 126.87 L 679.50 124.98 L 681.25 123.13 L 683.00 121.31 L 684.75 119.52 L 686.50 117.77 L 688.25 116.06 L 690.00 114.38 L 691.75 112.73 L 693.50 111.13 L 695.25 109.55 L 697.00 108.02 L 698.75 106.52 L 700.50 105.07 L 702.25 103.65 L 704.00 102.26 L 705.75 100.92 L 707.50 99.62 L 709.25 98.36 L 711.00 97.13 L 712.75 95.95 L 714.50 94.80 L 716.25 93.70 L 718.00 92.64 L 719.75 91.62 L 721.50 90.64 L 723.25 89.70 L 725.00 88.81 L 726.75 87.96 L 728.50 87.15 L 730.25 86.38 L 732.00 85.66 L 733.75 84.97 L 735.50 84.33 L 737.25 83.74 L 739.00 83.19 L 740.75 82.68 L 742.50 82.22 L 744.25 81.80 L 746.00 81.42 L 747.75 81.09 L 749.50 80.80 L 751.25 80.55 L 753.00 80.36 L 754.75 80.20 L 756.50 80.09 L 758.25 80.02 L 760.00 80.00" fill="none" stroke="red" stroke-width="2.5"/>

  <!-- Special points for sine -->
  <circle cx="60.0" cy="260.0" r="2.5" fill="blue"/>
  <circle cx="118.33333333333333" cy="170.0" r="2.5" fill="blue"/>
  <circle cx="147.5" cy="132.72077938642144" r="2.5" fill="blue"/>
  <circle cx="176.66666666666666" cy="104.11542731880104" r="2.5" fill="blue"/>
  <circle cx="235.0" cy="80.0" r="2.5" fill="blue"/>
  <text x="227.0" y="70.0" font-family="Arial" font-size="11" fill="blue" font-weight="bold">1</text>
  <circle cx="293.3333333333333" cy="104.11542731880104" r="2.5" fill="blue"/>
  <circle cx="322.5" cy="132.72077938642144" r="2.5" fill="blue"/>
  <circle cx="351.6666666666667" cy="170.0" r="2.5" fill="blue"/>
  <circle cx="410.0" cy="260.0" r="2.5" fill="blue"/>
  <circle cx="468.33333333333337" cy="350.0" r="2.5" fill="blue"/>
  <circle cx="497.5" cy="387.27922061357856" r="2.5" fill="blue"/>
  <circle cx="526.6666666666666" cy="415.8845726811989" r="2.5" fill="blue"/>
  <circle cx="585.0" cy="440.0" r="2.5" fill="blue"/>
  <text x="577.0" y="455.0" font-family="Arial" font-size="11" fill="blue" font-weight="bold">-1</text>
  <circle cx="643.3333333333334" cy="415.88457268119896" r="2.5" fill="blue"/>
  <circle cx="672.5" cy="387.27922061357856" r="2.5" fill="blue"/>
  <circle cx="701.6666666666666" cy="350.0000000000001" r="2.5" fill="blue"/>
  <circle cx="760.0" cy="260.00000000000006" r="2.5" fill="blue"/>

  <!-- Special points for cosine -->
  <circle cx="60.0" cy="80.0" r="2.5" fill="red"/>
  <text x="35.0" y="70.0" font-family="Arial" font-size="11" fill="red" font-weight="bold">cos: 1</text>
  <circle cx="118.33333333333333" cy="104.11542731880104" r="2.5" fill="red"/>
  <circle cx="147.5" cy="132.72077938642144" r="2.5" fill="red"/>
  <circle cx="176.66666666666666" cy="170.0" r="2.5" fill="red"/>
  <circle cx="235.0" cy="260.0" r="2.5" fill="red"/>
  <circle cx="293.3333333333333" cy="349.99999999999994" r="2.5" fill="red"/>
  <circle cx="322.5" cy="387.27922061357856" r="2.5" fill="red"/>
  <circle cx="351.6666666666667" cy="415.88457268119896" r="2.5" fill="red"/>
  <circle cx="410.0" cy="440.0" r="2.5" fill="red"/>
  <text x="400.0" y="455.0" font-family="Arial" font-size="11" fill="red" font-weight="bold">-1</text>
  <circle cx="468.33333333333337" cy="415.88457268119896" r="2.5" fill="red"/>
  <circle cx="497.5" cy="387.27922061357856" r="2.5" fill="red"/>
  <circle cx="526.6666666666666" cy="350.0000000000001" r="2.5" fill="red"/>
  <circle cx="585.0" cy="260.00000000000006" r="2.5" fill="red"/>
  <circle cx="643.3333333333334" cy="170.0" r="2.5" fill="red"/>
  <circle cx="672.5" cy="132.7207793864215" r="2.5" fill="red"/>
  <circle cx="701.6666666666666" cy="104.1154273188011" r="2.5" fill="red"/>
  <circle cx="760.0" cy="80.0" r="2.5" fill="red"/>
  <text x="770.0" y="70.0" font-family="Arial" font-size="11" fill="red" font-weight="bold">cos: 1</text>

  <!-- Legend -->
  <rect x="590" y="7" width="150" height="50" fill="white" stroke="black" stroke-width="1" rx="5"/>
  <line x1="600" y1="25" x2="640" y2="25" stroke="blue" stroke-width="2.5"/>
  <text x="650" y="30" font-family="Arial" font-size="14" font-weight="bold" fill="blue">sin θ</text>
  <line x1="600" y1="45" x2="640" y2="45" stroke="red" stroke-width="2.5"/>
  <text x="650" y="50" font-family="Arial" font-size="14" font-weight="bold" fill="red">cos θ</text>
</svg>
